PathFileType	4	(X/Y/Z)	/Users/niels/Desktop/University/Third Semester/Perception and Action/Exam/Gymnastics Motion Tracking/Code for Gym Tracking/Analyzed Data/Backflip/id1_1_baseline_Sports2D/id1_1_baseline_Sports2D_px_person00.trc
DataRate	CameraRate	NumFrames	NumMarkers	Units	OrigDataRate	OrigDataStartFrame	OrigNumFrames
60.02098635886674	60.02098635886674	10	22	m	60.02098635886674	179	287
Frame#	Time	Hip			RHip			RKnee			RAnkle			RBigToe			RSmallToe			RHeel			LHip			LKnee			LAnkle			LBigToe			LSmallToe			LHeel			Neck			Head			Nose			RShoulder			RElbow			RWrist			LShoulder			LElbow			LWrist		
		X1	Y1	Z1	X2	Y2	Z2	X3	Y3	Z3	X4	Y4	Z4	X5	Y5	Z5	X6	Y6	Z6	X7	Y7	Z7	X8	Y8	Z8	X9	Y9	Z9	X10	Y10	Z10	X11	Y11	Z11	X12	Y12	Z12	X13	Y13	Z13	X14	Y14	Z14	X15	Y15	Z15	X16	Y16	Z16	X17	Y17	Z17	X18	Y18	Z18	X19	Y19	Z19	X20	Y20	Z20	X21	Y21	Z21	X22	Y22	Z22
179	2.982290209790209	1.0274544281729456	-0.5479979799383743	0.0	1.018255984184455	-0.5432874625478489	0.0	1.0397075234485949	-0.6423136105461543	0.0	1.0406621348699736	-0.7402089942405368	0.0	1.070694077602664	-0.7513375727186269	0.0	1.0554843141178565	-0.7530578623426145	0.0	1.0337266334106685	-0.7491905485080631	0.0	1.0369648605529147	-0.5462891102276727	0.0	1.06068506198184	-0.6370148695906089	0.0	1.0491784706983744	-0.7339243300107373	0.0	1.0804997039410125	-0.7418682617713119	0.0	1.073783409494342	-0.7390768228371043	0.0	1.0431260888977565	-0.7429804918437319	0.0	1.098261867430526	-0.44355696712556764	0.0	1.1540503172110284	-0.40345856735871505	0.0	1.1465214054744652	-0.4352224389230577	0.0	1.0836511070471755	-0.4383612510184137	0.0	1.0257702959770036	-0.43465769353363104	0.0	0.9747413710958501	-0.4231469822479254	0.0	1.093475314148853	-0.4531193246121793	0.0	1.0439279388381855	-0.45315127281462186	0.0	1.0051218488324134	-0.4664215186196082	0.0
180	2.9989510489510485	1.0250752150136115	-0.5474239148999764	0.0	1.0160218087465278	-0.5430271125872396	0.0	1.0396706243181946	-0.6411198603953294	0.0	1.0406641034905548	-0.7389640838156295	0.0	1.0710058256906365	-0.7500547130658701	0.0	1.055667401724115	-0.7517328463346672	0.0	1.0336815167488047	-0.7481574779713701	0.0	1.0348968407257286	-0.5461997598925183	0.0	1.0611678739298391	-0.6352531175223215	0.0	1.0494969003145267	-0.7322496762982393	0.0	1.080603551615531	-0.7406482505314748	0.0	1.074077969812182	-0.7380040161580886	0.0	1.0433259364401302	-0.7414769213590685	0.0	1.0994488903040804	-0.4453401659627323	0.0	1.1550358753672059	-0.4059163874588421	0.0	1.1476864595392708	-0.4371052035936043	0.0	1.0845626648877686	-0.440596224125186	0.0	1.02487342895668	-0.4367636858651185	0.0	0.9723366911807961	-0.4262898683277558	0.0	1.0943078220630926	-0.4547946430260209	0.0	1.0425022046064216	-0.4538878682647071	0.0	1.0018807502626257	-0.46741747611071455	0.0
181	3.015611888111888	1.0227318624748551	-0.5472449734439274	0.0	1.0138493371455772	-0.5431996794308942	0.0	1.0399042196495885	-0.6401860734167207	0.0	1.0405627223112341	-0.7378654360512585	0.0	1.0712094926981355	-0.7490585178464761	0.0	1.0559301167022472	-0.7507182889571545	0.0	1.0335142526253773	-0.7473595493161618	0.0	1.0328287282306907	-0.5465041327179536	0.0	1.0617507293266106	-0.6337993772549126	0.0	1.049730360044171	-0.7308218985929331	0.0	1.0804848979137205	-0.7398957154297716	0.0	1.0742213774548546	-0.7373431806863854	0.0	1.0434511412433474	-0.7402630728337101	0.0	1.1005564538537576	-0.44750739328161926	0.0	1.1558692472137595	-0.40869552206710147	0.0	1.148685938092321	-0.4393014426060332	0.0	1.0853298174869286	-0.4434249378332596	0.0	1.023941794131942	-0.4398589922703499	0.0	0.9698902994720567	-0.4309891782332578	0.0	1.0949828286448364	-0.4568107446868176	0.0	1.0407625697190082	-0.45554343846480294	0.0	0.9982215006213757	-0.4693652714576068	0.0
182	3.032272727272727	1.0204533400831746	-0.5475010069402559	0.0	1.0117685878953986	-0.5438271280106013	0.0	1.0404439000229007	-0.639522044854891	0.0	1.040352618517624	-0.7368874729208224	0.0	1.0712988274954396	-0.748389014139725	0.0	1.056260371925393	-0.7500497046187025	0.0	1.0332243848129514	-0.7467834116758723	0.0	1.0307778434093071	-0.5472122750062198	0.0	1.0624336099878366	-0.6326982138652043	0.0	1.049851381844337	-0.7296805908275494	0.0	1.0801545281318863	-0.7396409394497112	0.0	1.0742026927050388	-0.7371243453744241	0.0	1.043465484091889	-0.7394017759156294	0.0	1.101551722835932	-0.4500483102709453	0.0	1.1565525105374077	-0.411773786344697	0.0	1.1495060471111578	-0.44179643596613133	0.0	1.085902946221663	-0.4468137110790611	0.0	1.0229601478577475	-0.44400390696762737	0.0	0.9674975151620494	-0.43735537863352436	0.0	1.095481437298626	-0.4591835137030922	0.0	1.038772132945745	-0.4581513265185431	0.0	0.994263605537645	-0.4723559207414715	0.0
183	3.0489335664335657	1.0182671209558927	-0.548240800281555	0.0	1.0098095276665489	-0.5449420996788955	0.0	1.0413200683662103	-0.6391446375293316	0.0	1.0400300987770124	-0.7360043846209654	0.0	1.0712816452529397	-0.7480874521356236	0.0	1.0566462638838592	-0.7497671009672937	0.0	1.0328257656261453	-0.7464087520780464	0.0	1.0287622064329296	-0.548344255398805	0.0	1.063209747346419	-0.6319990446996958	0.0	1.049829656147218	-0.7288684057908498	0.0	1.0796429774223366	-0.7399126679767059	0.0	1.0740201058907286	-0.737374607120884	0.0	1.0433240857950317	-0.7389557504491447	0.0	1.1024006424644892	-0.45294500603874316	0.0	1.1570591934745542	-0.41510950931638435	0.0	1.1501213091465345	-0.4445695644841489	0.0	1.0862328148086848	-0.4507217173069703	0.0	1.0219311015596169	-0.44925538151831734	0.0	0.9652827242524556	-0.4454741944466482	0.0	1.0957795595494157	-0.4619314274264373	0.0	1.036624333174493	-0.46176182145177724	0.0	0.9901777319297351	-0.4765120594479104	0.0
184	3.065594405594405	1.0162013017206326	-0.5495151587649345	0.0	1.008003519980299	-0.5465779959664215	0.0	1.0425529961635174	-0.6390772680331298	0.0	1.0395956217983233	-0.7351992195632827	0.0	1.071174322313454	-0.7482015571323974	0.0	1.0570715600696916	-0.7499213389675761	0.0	1.0323424034722963	-0.7462147595202654	0.0	1.0268029544497357	-0.5499238473812251	0.0	1.0640643179751927	-0.6317525016542299	0.0	1.0496390079223372	-0.7284306227845314	0.0	1.0789994467484665	-0.7407379469908411	0.0	1.073686425180853	-0.7381187338166589	0.0	1.0429825937856667	-0.7389828587366698	0.0	1.1030623904958274	-0.45617272543238097	0.0	1.1573407821159674	-0.4186446519951944	0.0	1.1504950383351489	-0.4475926002601658	0.0	1.0862813230161183	-0.4551030216518816	0.0	1.0208917444259438	-0.45566497730378885	0.0	0.9634036711088587	-0.45538266874943695	0.0	1.0958475117095736	-0.46506365740147687	0.0	1.0344469336672375	-0.4664402102888591	0.0	0.9862066904964767	-0.4820006690147202	0.0
185	3.0822552447552445	1.0142814284963058	-0.5513695565861123	0.0	1.0063814286303006	-0.5487606188476355	0.0	1.044145510428341	-0.6393532408825094	0.0	1.0390556239591386	-0.7344733020855307	0.0	1.070991788610201	-0.7487916798677663	0.0	1.057507954108554	-0.7505777251802683	0.0	1.0317996583614901	-0.746186407011185	0.0	1.0249238848765585	-0.5519742513941606	0.0	1.064976234699881	-0.6320104964973571	0.0	1.0492637282065203	-0.7284165030299301	0.0	1.0782904697994675	-0.7421488690027381	0.0	1.0732333173391568	-0.7393859681368672	0.0	1.042405931999338	-0.7395329085140052	0.0	1.1034853553829065	-0.45969848063635993	0.0	1.1573384040352843	-0.4223127076020211	0.0	1.1505833782574857	-0.4508268483397363	0.0	1.0860326913941343	-0.45990677016965015	0.0	1.0199235332999106	-0.46327119207465	0.0	0.9620521931512368	-0.4670415930186206	0.0	1.0956523551427715	-0.46856804888811726	0.0	1.0323972011460778	-0.4722500503983919	0.0	0.9826747776359395	-0.4890246476664402	0.0
186	3.0989160839160834	1.0125247241602187	-0.553837942270726	0.0	1.0049647108151483	-0.5515050562089687	0.0	1.046076627894523	-0.6400211504880782	0.0	1.0384199958969207	-0.7338518619346626	0.0	1.0707397667303733	-0.7499292347909142	0.0	1.0579128036487155	-0.751809677308994	0.0	1.0312144939343566	-0.7463166271393623	0.0	1.0231469563193627	-0.5545169686659784	0.0	1.0659201034672288	-0.6328291908654055	0.0	1.0487020889847536	-0.7288802752910744	0.0	1.0775845896546867	-0.744188274565657	0.0	1.0727033272114488	-0.7412142921596439	0.0	1.0415738555313239	-0.7406438994853294	0.0	1.1036060573849258	-0.463481155568074	0.0	1.1569960682397362	-0.42604833266152153	0.0	1.150337978298354	-0.4542233366904876	0.0	1.0854927315874017	-0.46507508223343014	0.0	1.0191523090625032	-0.47208382850920355	0.0	0.9614634957866779	-0.4803266494040292	0.0	1.0951636287812119	-0.47240858925029633	0.0	1.0306497389607152	-0.4792273216845886	0.0	0.979971375711885	-0.49775925538867066	0.0
187	3.1155769230769224	1.0109364399204184	-0.556938512555928	0.0	1.0037562429570739	-0.5548180094970907	0.0	1.0483004457692533	-0.6411474278012367	0.0	1.0376970821356346	-0.7333874025481926	0.0	1.0704191536945662	-0.7516821954307414	0.0	1.0582401222608424	-0.753680614072357	0.0	1.0305904925111953	-0.7466039530850924	0.0	1.021486278363457	-0.5575727489419998	0.0	1.0668672578508536	-0.6342710990994272	0.0	1.0479690712226704	-0.7298820502674843	0.0	1.0769317527122324	-0.7468999140814468	0.0	1.0721382701927795	-0.743641171658543	0.0	1.0404849678129797	-0.7423346317442036	0.0	1.1033562641930723	-0.46747482222016595	0.0	1.1562647004965176	-0.4297927747731852	0.0	1.149708049421741	-0.4577292525644319	0.0	1.0846797479786443	-0.470540558293295	0.0	1.0187519256862843	-0.4820628241078152	0.0	0.9619557519651489	-0.4950616198630606	0.0	1.0943584637208992	-0.4765340951013993	0.0	1.029390762414728	-0.4873614644795904	0.0	0.9785377590708405	-0.5082787612853327	0.0
188	3.1322377622377617	1.009510220226333	-0.5606724387997671	0.0	1.0027397021535127	-0.5587021189942335	0.0	1.0507490289340058	-0.6428153196100075	0.0	1.0368933792305515	-0.7331670815277866	0.0	1.070040159169885	-0.7540973185637018	0.0	1.0584554290600656	-0.7562261153682361	0.0	1.0299214139042916	-0.7470519157465036	0.0	1.0199462153270702	-0.5611625296932571	0.0	1.0677882045643694	-0.6364038544432963	0.0	1.0470968021663474	-0.731490673078767	0.0	1.0763612372425715	-0.7503089666930799	0.0	1.0715778711329382	-0.7466849971712095	0.0	1.039159416450136	-0.744593791659552	0.0	1.1026778814939324	-0.4716335145247672	0.0	1.1550889569416505	-0.43349175598400935	0.0	1.1486445245789452	-0.46129667258004	0.0	1.083621801790182	-0.47622633403705716	0.0	1.0189498762346723	-0.493092909715272	0.0	0.9639516862580882	-0.5110366450958775	0.0	1.093223936198744	-0.4808910488949502	0.0	1.0288232191200257	-0.4965791817142547	0.0	0.9788587303784195	-0.5205115437303429	0.0
